<?xml version="1.0" encoding="UTF-8"?>
<svg viewBox="0 0 640 480" xmlns="http://www.w3.org/2000/svg">
 <defs>
  <linearGradient id="c" x1=".93238" x2=".39462" y1="1.4722" y2="1.4722">
   <stop offset="0"/>
   <stop stop-opacity="0" offset="1"/>
  </linearGradient>
  <radialGradient id="d" cx=".64062" cy=".30859">
   <stop stop-color="#f00" offset="0"/>
   <stop stop-color="#ff0" offset="1"/>
  </radialGradient>
 </defs>
 <g fill="url(#d)" stroke-dashoffset="68" stroke-linejoin="round">
  <g stroke-width=".5">
   <path d="m582.22 133.16c1.9433-1.8247 3.822-3.6688 5.6309-5.5556-1.0842-6.0334-2.8027-13.613-5.416-19.645-3.8842-8.966-21.962-22.65-30.755-28.932 3.289 2.289 10.657 7.401 24.681 17.222 9.0897 6.3655 15.711 15.039 19.889 21.66 20.301-25.908 27.998-58.009 14.914-102.28-6.0175-7.556-26.956-6.2277-56.552 1.9436-2.5865 6.4454-5.7072 14.164-8.4006 20.685-5.7313 13.878-8.2223 19.498-8.2223 19.498s4.6143-23 6.0881-37.072c-82.051 25.303-218.1 95.337-298.43 173.86-174.25 170.33-188.78 227.83-164.37 254.19 116.8-45.184 102.53 25.28 268.19-140.61 74.4-74.501 174.87-120.62 232.75-174.97z"/>
   <path d="m582.22 133.16c1.9433-1.8247 3.822-3.6688 5.6309-5.5556-1.0842-6.0334-2.8027-13.613-5.416-19.645-3.8842-8.966-21.962-22.65-30.755-28.932 3.289 2.289 10.657 7.401 24.681 17.222 9.0897 6.3655 15.711 15.039 19.889 21.66 20.301-25.908 27.998-58.009 14.914-102.28-6.0175-7.556-26.956-6.2277-56.552 1.9436-2.5865 6.4454-5.7072 14.164-8.4006 20.685-5.7313 13.878-8.2223 19.498-8.2223 19.498s4.6143-23 6.0881-37.072c-82.051 25.303-218.1 95.337-298.43 173.86-174.25 170.33-188.78 227.83-164.37 254.19 116.8-45.184 102.53 25.28 268.19-140.61 74.4-74.501 174.87-120.62 232.75-174.97z"/>
   <path d="m101.2 440.48s93.353-111.71 193.77-197.52c89.707-76.594 213.92-159.56 213.92-159.56s-95.306 54.574-138.59 86.526c-44.537 32.874-99.784 68.555-150.87 124.92-51.086 56.366-109.97 112.98-109.97 112.98l-30.268 35.99s20.471-1.407 22.004-3.3369z" fill-opacity=".649" opacity=".722" stroke-opacity=".858"/>
   <path d="m582.22 133.16c1.9433-1.8247 3.822-3.6688 5.6309-5.5556-1.0842-6.0334-2.8027-13.613-5.416-19.645-3.8842-8.966-21.962-22.65-30.755-28.932 3.289 2.289 10.657 7.401 24.681 17.222 9.0897 6.3655 15.711 15.039 19.889 21.66 20.301-25.908 27.998-58.009 14.914-102.28-6.0175-7.556-26.956-6.2277-56.552 1.9436-2.5865 6.4454-5.7072 14.164-8.4006 20.685-5.7313 13.878-8.2223 19.498-8.2223 19.498s4.6143-23 6.0881-37.072c-82.051 25.303-218.1 95.337-298.43 173.86-174.25 170.33-188.78 227.83-164.37 254.19 116.8-45.184 102.53 25.28 268.19-140.61 74.4-74.501 174.87-120.62 232.75-174.97z"/>
   <path d="m525.53 75.45s-156.24 80.417-314.67 237.27-209.26 252.23-209.26 252.23l-39.831 41.173-1.7728-1.6694s96.424-164.62 208.96-270.65c243.1-229.02 360.22-257.83 356.57-258.35z"/>
  </g>
  <path d="m91.744 445.38c26.368-9.9544 55.32-16.77 82.788-18.399 15.49-0.6795 30.658-4.8735 44.486-11.336 9.3917-2.2529 15.31-11.416 24.136-12.739 12.967-9.8863 27.183-21.222 39.11-30.654 11.776-11.828 25.871-23.555 38.049-36.153 34.397-32.546 67.754-66.469 107.51-92.889 27.984-20.122 57.105-38.34 85.643-57.67 16.295-9.354 30.467-22.196 45.949-33.26 11.048-10.418 34.255-19.681 25.325-38.206-1.4928-12.026-12.712-17.213-19.255-25.128 11.883 7.0521 21.838 16.707 30.763 27.353 11.636-10.694 16.34-27.49 20.098-42.516 1.1605-8.1885 1.3259-14.97 1.2263-21.81-0.80347-6.6426 0.20245-11.791-2.7369-18.486-0.86804-8.4794-3.3323-18.196-7.5062-21.398-5.4747 1.0975-14.766-5.0403-18.839-0.22265-2.5425-2.2049-9.3981-0.43343-12.931 0.61975-6.9741 1.444-14.299 2.8428-19.592 5.0108-6.1865 4.4097-6.977 18.842-12.986 26.566-2.3908 14.98-5.498 5.1869-1.6259-2.1029 1.1342-9.4624 0.75079-12.551 3.3058-20.724-4.8123 1.3723-11.71 4.079-19.178 4.6184-10.304 6.7892-24.469 9.673-35.849 14.794-15.551 6.7424-31.342 14.576-47.022 21.721-10.433 7.2257-22.836 10.036-33.169 16.938-8.0022 5.7417-16.894 8.5719-24.376 13.921-7.2398 4.0498-14.971 8.3849-18.263 11.896-4.2716 0.30849-6.8966 2.5028-9.8604 4.7354-7.4622 2.3174-12.387 8.9042-19.061 11.822-7.6622 7.2692-18.621 10.357-25.905 17.775-14.407 11.297-31.38 23.017-45.648 36.19-16.253 14.312-31.377 29.338-46.922 44.332-7.4102 11.116-19.407 17.32-26.373 27.867-8.4348 8.141-13.35 17.155-22.334 23.676-4.8094 10.632-14.486 11.575-16.794 19.781-6.5017 5.0378-11.337 12.458-17.314 19.604-12.524 15.047-26.504 31.35-37.363 49.169-13.871 21.381-28.716 46.472-25.139 72.986m519.43-422.41l0.1634 0.4668-0.1634-0.4668zm14.777 2.0429l0.0216 0.3655-0.0216-0.3655zm-0.4458 1.1308l-0.1049-0.1387 0.1049 0.1387zm1.6981 0.387c1.1462 1.0262-1.1483 0.067272 0 0zm-44.911 1.7255c1.208 0.99855-1.1337-0.57619 0 0zm-0.8032-0.175l-0.2933 0.1683 0.2933-0.1683zm-25.073 39.306c-0.004089 3.6971-2.6338 2.3156 0 0zm18.647 28.52l0.313 0.1594-0.313-0.1594zm1.5656 0.504c16.388 10.299-2.9986 0.19146 0 0zm4.8871 3.9974l0.0509-0.1277-0.0509 0.1277zm0.7897 0.3933l-0.1302 0.0529 0.1302-0.0529zm0.2321 0.2962l-0.3603 0.1555 0.3603-0.1555zm1.8493 2.4942l0.1738 0.2073-0.1738-0.2073zm29.534 26.127l0.249 0.1412-0.249-0.1412zm0.2341 0.265l0.1407 0.0982-0.1407-0.0982zm-34.809 33.724l0.0194-0.0976-0.0194 0.0976zm-5.0272 3.8214l0.1165 0.2693-0.1165-0.2693zm-14.468 10.156l0.445-0.0315-0.445 0.0315zm-18.65 13.466l-0.1403-0.0018 0.1403 0.0018zm-8.9796 5.455l-0.2258-0.0967 0.2258 0.0967zm-318.03 59.85l-0.129-0.0107 0.129 0.0107zm-14.936 15.168l0.0601-0.0443-0.0601 0.0443zm-13.173 16.028c1.4639 1.7445-1.558 0.1467 0 0zm-11.807 11.166l-0.2745-0.0811 0.2745 0.0811zm0.7899 0.8943c-0.22485 1.7664-1.5842-1.0502 0 0zm-2.3827 2.5763c1.4186 2.1901-1.858 1.4974 0 0zm-2.227 2.085l0.0793-0.0692-0.0793 0.0692zm-4.903 2.8272l0.2408 0.4094-0.2408-0.4094zm-3.2525 5.4969l0.2628 0.1263-0.2628-0.1263zm-5.3146 5.9326l0.0114 0.1497-0.0114-0.1497zm-1.7699 3.8041l-0.6051 0.341 0.6051-0.341zm-3.163 5.0641l0.0344 0.1442-0.0344-0.1442zm-3.5703 1.5321l0.0288 0.0605-0.0288-0.0605zm-2.46 3.8239l0.0907 0.089-0.0907-0.089zm-1.9719 1.5059l0.2109 0.2712-0.2109-0.2712zm195.3 13.794l0.0594-0.0212-0.0594 0.0212zm-15.889 14.389l-0.1895 0.1534 0.1895-0.1534zm-2.9808 3.1341l0.0832 0.0035-0.0832-0.0035zm-3.8345 3.2691l0.2229-0.1748-0.2229 0.1748zm-16.684 16.093l0.0661 0.0243-0.0661-0.0243zm-5.1592 4.9404l0.0307-0.4962-0.0307 0.4962zm-1.583-0.2234l-0.1407 0.0862 0.1407-0.0862zm-11.186 8.7311l0.2563 0.0408-0.2563-0.0408zm-6.1363 4.0345l0.207 0.1668-0.207-0.1668zm-0.1513 1.4309l0.0016 0.1744-0.0016-0.1744zm0.0337 0.9727l0.2076-0.0978-0.2076 0.0978zm-2.0945 1.968l0.0435 0.1738-0.0435-0.1738zm-2.3876 0.6348l-0.0308 0.1594 0.0308-0.1594zm0.4504 0.3097l-0.1647 0.2956 0.1647-0.2956zm0.7058 0.2316l-0.0372-0.1173 0.0372 0.1173zm-0.3351 0.3549l0.1128 0.2463-0.1128-0.2463zm-9.7922 5.937l-0.0382 0.2282 0.0382-0.2282zm-3.068 0.4987l-0.0732 0.0418 0.0732-0.0418zm0.942 0.9664l0.2657 0.0627-0.2657-0.0627zm0.618 0.1322l0.0608-0.0443-0.0608 0.0443zm-4.6899 0.3982l0.2618-0.1809-0.2618 0.1809zm3.1444 0.2888l0.0514 0.2532-0.0514-0.2532zm-3.6468 0.7446l-0.154-0.0408 0.154 0.0408zm0.2633 0.2981l0.0478 0.1836-0.0478-0.1836zm-2.132 1.0576l0.0904-0.0809-0.0904 0.0809zm-4.2496-0.1381l0.0693 0.1045-0.0693-0.1045zm0.4662 0.5612l0.075 0.1313-0.075-0.1313zm-1.0274 3.443l0.1226-0.1293-0.1226 0.1293zm0.5829 0.1927l0.0075 0.0754-0.0075-0.0754zm-1.4811 0.6596l-0.2679 0.325 0.2679-0.325zm0.7588 0.8924l-0.0877-0.3898 0.0877 0.3898zm-6.818 1.3935l-0.2259-0.3548 0.2259 0.3548zm-5.4777 3.5117l0.0806-0.1648-0.0806 0.1648zm-1.1637 0.0844l-0.0609 0.2348 0.0609-0.2348zm-0.0367 0.5926l-0.0213 0.0896 0.0213-0.0896zm-4.3272 0.6085l0.2297-0.0538-0.2297 0.0538zm-0.3097 0.4505l0.0606-0.0763-0.0606 0.0763zm-3.986 0.661l0.2257 0.0451-0.2257-0.0451zm-0.6001 0.589l0.1239 0.098-0.1239-0.098zm-0.066 0.5595l0.2672-0.2946-0.2672 0.2946zm-6.8561 3.0192l-0.0063 0.0484 0.0063-0.0484zm-16.189 1.0319l0.0019 0.1017-0.0019-0.1017zm-4.1828 0.8053l0.0595 0.0764-0.0595-0.0764z" stroke="url(#c)" stroke-width="2"/>
  <g stroke-width=".5">
   <path d="m525.53 75.45s-156.24 80.417-314.67 237.27-209.26 252.23-209.26 252.23l-39.831 41.173-1.7728-1.6694s96.424-164.62 208.96-270.65c243.1-229.02 360.22-257.83 356.57-258.35z" opacity=".722"/>
   <path d="m525.53 75.45s-156.24 80.417-314.67 237.27-209.26 252.23-209.26 252.23l-39.831 41.173-1.7728-1.6694s96.424-164.62 208.96-270.65c243.1-229.02 360.22-257.83 356.57-258.35z"/>
   <path d="m525.53 75.45s-156.24 80.417-314.67 237.27-209.26 252.23-209.26 252.23l-39.831 41.173-1.7728-1.6694s96.424-164.62 208.96-270.65c243.1-229.02 360.22-257.83 356.57-258.35z"/>
   <g stroke-opacity=".858">
    <path d="m101.21 442.81s50.398-17.495 87.66-38.095 39.548-17.165 50.213-27.959 26.649-21.401 26.649-21.401l-25.426-14.462 31.859 10.136s20.958-15.597 31.906-30.954c10.948-15.358 21.471-23.869 31.994-32.381 10.523-8.5115 13.207-11.495 13.207-11.495l-32.123-19.316 34.205 15.292s15.188-8.5088 28.127-23.743 41.84-46.089 48.31-53.706c6.4696-7.6173 35.695-27.57 54.326-37.87s39.324-21.618 51.698-27.724c12.374-6.1059 34.16-18.931 34.16-18.931l-7.4475-16.927-10.744-12.12s2.6211-12.724 7.0422-14.168c4.4211-1.4442 39.126-13.039 43.392-17.356 4.2659-4.3175 11.425-23.06 11.425-23.06l-8.3943-12.404-42.266 31.458 15.7-27.52-14.476 2.3961s-15.226 25.259-17.589 31.126c-2.3628 5.8672-20.46 26.366-20.46 26.366s-51.05 25.33-57.816 32.356c-6.7662 7.0262-84.378 65.789-96.769 72.18-12.391 6.3912-51.224 36.201-55.56 41.659-4.3367 5.4585-68.335 59.624-68.335 59.624l-53.202 54.692-62.234 66.016-42.606 42.319 13.578-4.0268z" opacity=".722"/>
    <path d="m77.964 433.45s128.31-129.5 166.56-166.08c38.252-36.575 143.12-113.12 143.12-113.12s90.873-60.375 96.918-61.146c6.0454-0.77084 33.476-15.966 33.476-15.966l11.754-6.8602s1.7727-23.229 0.99304-32.154c-0.77966-8.9256-21.212 3.5537-21.212 3.5537l-8.3856 11.651-4.694-7.5931s-64.658 24.486-84.498 38.148c-19.839 13.662-22.668 24.368-22.668 24.368l-5.0428 27.608s-0.95252-11.514-2.4137-20.195c-1.4612-8.6815 3.5305-13.956 3.5305-13.956s-41.45 26.354-51.903 33.724c-10.453 7.3704-30.38 22.458-30.38 22.458l-0.5275 16.576 4.5221 15.744s-10.211-12.66-9.6276-22.074c0.58337-9.4138-73.365 57.451-73.365 57.451l8.3706 20.85-14.287-16.778s-54.458 64.207-59.632 67.036c-5.1733 2.8294-14.621 10.119-14.621 10.119l17.978 10.994-22.927-3.7117s-71.834 78.451-61.041 119.35z" opacity=".722"/>
   </g>
  </g>
 </g>
</svg>
