<?xml version="1.0" encoding="UTF-8"?>
<svg viewBox="0 0 658.59534 597.11823" xmlns="http://www.w3.org/2000/svg" xmlns:xlink="http://www.w3.org/1999/xlink">
 <defs>
  <linearGradient id="a">
   <stop offset="0"/>
   <stop stop-opacity="0" offset="1"/>
  </linearGradient>
  <linearGradient id="b">
   <stop stop-color="#d42aff" offset="0"/>
   <stop stop-color="#d42aff" stop-opacity="0" offset="1"/>
  </linearGradient>
  <linearGradient id="k" x1="178.97" x2="423.57" y1="286.36" y2="433.99" gradientUnits="userSpaceOnUse">
   <stop stop-color="#062e05" offset="0"/>
   <stop stop-color="#062e05" stop-opacity="0" offset="1"/>
  </linearGradient>
  <linearGradient id="j" x1="305.08" x2="211.42" y1="525.77" y2="392.58" gradientUnits="userSpaceOnUse">
   <stop stop-color="#80650a" offset="0"/>
   <stop stop-color="#80650a" stop-opacity="0" offset="1"/>
  </linearGradient>
  <linearGradient id="l" x1="647.76" x2="365.51" y1="795.02" y2="185.84" gradientUnits="userSpaceOnUse" xlink:href="#a"/>
  <radialGradient id="i" cx="358.89" cy="264.81" r="341.54" fx="366.26" fy="365.95" gradientTransform="matrix(-.89179 .7102 -.16764 -.21051 784.2 143.25)" gradientUnits="userSpaceOnUse">
   <stop stop-color="#0f0" offset="0"/>
   <stop stop-color="#0f0" stop-opacity="0" offset="1"/>
  </radialGradient>
  <radialGradient id="f" cx="269.14" cy="359.91" r="261.02" gradientTransform="matrix(.99575 -.092136 .043244 .46735 -14.419 214.82)" gradientUnits="userSpaceOnUse">
   <stop stop-color="#d1f9d0" offset="0"/>
   <stop stop-color="#d1f9d0" stop-opacity="0" offset="1"/>
  </radialGradient>
  <radialGradient id="d" cx="265.34" cy="112.92" r="387.2" gradientTransform="matrix(-.70865 .69595 -.053494 -.05447 678.62 96.394)" gradientUnits="userSpaceOnUse">
   <stop stop-color="#24d81f" offset="0"/>
   <stop stop-color="#24d81f" stop-opacity="0" offset="1"/>
  </radialGradient>
  <radialGradient id="c" cx="643.47" cy="822.37" r="387.2" gradientTransform="matrix(-.58741 .88212 -.063545 -.042315 614.58 -21.696)" gradientUnits="userSpaceOnUse">
   <stop stop-color="#80a" offset="0"/>
   <stop stop-color="#80a" stop-opacity="0" offset="1"/>
  </radialGradient>
  <radialGradient id="h" cx="-123.9" cy="-329.47" r="341.54" fx="94.385" fy="458.26" gradientTransform="matrix(.053519 .24055 -.25246 .056168 594.11 175.71)" gradientUnits="userSpaceOnUse" xlink:href="#b"/>
  <radialGradient id="g" cx="953.1" cy="1745.2" r="341.54" fx="1171.4" fy="2533" gradientTransform="matrix(-.79911 1.2029 -.21543 -.14311 1342.1 -393.7)" gradientUnits="userSpaceOnUse" xlink:href="#b"/>
  <radialGradient id="e" cx="532.46" cy="285.89" r="387.2" fx="550.08" fy="591.35" gradientTransform="matrix(-.49442 .55784 -.057134 -.050639 574.71 172.77)" gradientUnits="userSpaceOnUse" xlink:href="#a"/>
 </defs>
 <g transform="matrix(.99809 .06185 -.06185 .99809 -14.397 -147.61)">
  <path d="m652.21 231.87c1.8267-1.9414 3.5878-3.8982 5.2765-5.8932-1.4553-5.9548-3.6392-13.413-6.6207-19.273-4.4313-8.7086-23.321-21.248-32.486-26.974 3.4243 2.0812 11.094 6.7277 25.699 15.663 9.466 5.7911 16.611 14.039 21.191 20.388 18.66-27.114 24.356-59.629 8.5594-103-6.4733-7.1694-27.29-4.5485-56.324 5.4377-2.1828 6.593-4.8202 14.489-7.105 21.165-4.862 14.206-7.0006 19.969-7.0006 19.969s3.183-23.241 3.7835-37.377c-80.329 30.33-211.79 108.64-287.11 191.99-163.38 180.78-174.32 239.07-148.33 263.87 113.78-52.321 103.89 18.89 258.98-156.93 69.65-78.96 167.07-131.2 221.48-189.03z" fill="url(#i)"/>
  <path d="m652.21 231.87c1.8267-1.9414 3.5878-3.8982 5.2765-5.8932-1.4553-5.9548-3.6392-13.413-6.6207-19.273-4.4313-8.7086-23.321-21.248-32.486-26.974 3.4243 2.0812 11.094 6.7277 25.699 15.663 9.466 5.7911 16.611 14.039 21.191 20.388 18.66-27.114 24.356-59.629 8.5594-103-6.4733-7.1694-27.29-4.5485-56.324 5.4377-2.1828 6.593-4.8202 14.489-7.105 21.165-4.862 14.206-7.0006 19.969-7.0006 19.969s3.183-23.241 3.7835-37.377c-80.329 30.33-211.79 108.64-287.11 191.99-163.38 180.78-174.32 239.07-148.33 263.87 113.78-52.321 103.89 18.89 258.98-156.93 69.65-78.96 167.07-131.2 221.48-189.03z" fill="url(#h)"/>
  <path d="m191.12 568.35s86.265-117.27 181.18-209.13c84.798-81.996 203.64-172.49 203.64-172.49s-91.748 60.364-132.98 94.933c-42.419 35.566-95.352 74.596-142.85 134.01s-102.77 119.57-102.77 119.57l-27.984 37.793s20.344-2.6704 21.755-4.6914z" fill="#062e05" fill-opacity=".64889" opacity=".72177"/>
  <path d="m652.21 231.87c1.8267-1.9414 3.5878-3.8982 5.2765-5.8932-1.4553-5.9548-3.6392-13.413-6.6207-19.273-4.4313-8.7086-23.321-21.248-32.486-26.974 3.4243 2.0812 11.094 6.7277 25.699 15.663 9.466 5.7911 16.611 14.039 21.191 20.388 18.66-27.114 24.356-59.629 8.5594-103-6.4733-7.1694-27.29-4.5485-56.324 5.4377-2.1828 6.593-4.8202 14.489-7.105 21.165-4.862 14.206-7.0006 19.969-7.0006 19.969s3.183-23.241 3.7835-37.377c-80.329 30.33-211.79 108.64-287.11 191.99-163.38 180.78-174.32 239.07-148.33 263.87 113.78-52.321 103.89 18.89 258.98-156.93 69.65-78.96 167.07-131.2 221.48-189.03z" fill="url(#g)"/>
  <path d="m592.05 177.78s-150.97 89.927-299.39 256.28-193.25 264.69-193.25 264.69l-37.208 43.558-1.8726-1.5566s86.057-170.27 191.82-283.06c228.47-243.62 343.58-279.62 339.9-279.91z" fill="#fff"/>
  <path d="m181.98 573.83c25.701-11.566 54.177-20.16 81.491-23.485 15.418-1.6362 30.298-6.7603 43.7-14.065 9.2344-2.8296 14.574-12.341 23.302-14.207 12.331-10.669 25.819-22.862 37.14-33.014 11.021-12.534 24.365-25.11 35.74-38.437 32.318-34.611 63.513-70.532 101.56-99.361 26.686-21.814 54.625-41.799 81.912-62.856 15.685-10.344 29.036-24.037 43.804-36.038 10.383-11.082 32.972-21.762 22.913-39.699-2.2338-11.91-13.752-16.394-20.772-23.888 12.296 6.3037 22.829 15.325 32.396 25.398 10.952-11.393 14.608-28.448 17.43-43.678 0.65178-8.2446 0.39743-15.024-0.125-21.844-1.2128-6.5801-0.52725-11.781-3.875-18.281-1.3908-8.4095-4.4514-17.956-8.8154-20.893-5.3963 1.434-15.049-4.1173-18.817 0.943-2.674-2.0434-9.4069 0.14869-12.868 1.4184-6.8714 1.8726-14.096 3.7218-19.245 6.2131-5.9018 4.7839-5.7982 19.238-11.317 27.318-1.4596 15.099-5.1666 5.5171-1.7529-1.9983 0.54674-9.5144-0.0269-12.573 2.0177-20.889-4.7182 1.6673-11.435 4.7955-18.856 5.7958-9.8645 7.4135-23.824 11.168-34.866 16.984-15.104 7.6914-30.381 16.486-45.588 24.587-9.9661 7.8571-22.172 11.43-32.058 18.957-7.6317 6.2257-16.332 9.6004-23.469 15.402-6.9754 4.4899-14.423 9.2948-17.492 13.003-4.2443 0.57209-6.7286 2.9246-9.5486 5.3362-7.3046 2.7746-11.813 9.6533-18.294 12.978-7.1979 7.7292-17.945 11.489-24.756 19.344-13.68 12.167-29.896 24.914-43.322 38.944-15.337 15.29-29.502 31.222-44.09 47.149-6.7085 11.553-18.299 18.487-24.599 29.445-7.9151 8.6471-12.263 17.948-20.827 25.012-4.1426 10.909-13.743 12.449-15.538 20.782-6.1777 5.4302-10.545 13.136-16.068 20.637-11.569 15.793-24.514 32.929-34.25 51.386-12.522 22.198-25.786 48.159-20.577 74.402m492.31-453.72 0.19193 0.4558-0.19193-0.4558zm14.875 1.125 0.04422 0.36348-0.04422-0.36348zm-0.375 1.1562-0.11331-0.13191 0.11331 0.13191zm1.7188 0.28125c1.2075 0.95336-1.142 0.13816 0 0zm-44.719 4.5c1.2674 0.92192-1.1672-0.50497 0 0zm-0.8125-0.125-0.28232 0.18616 0.28232-0.18616zm-22.594 40.781c0.22461 3.6902-2.4856 2.4741 0 0zm20.375 27.312 0.32229 0.13975-0.32229-0.13975zm1.5938 0.40625c16.994 9.2658-2.981 0.37655 0 0zm5.125 3.6875 0.0429-0.13063-0.0429 0.13063zm0.8125 0.34375-0.12665 0.06089 0.12665-0.06089zm0.25 0.28125-0.34996 0.17747 0.34996-0.17747zm2 2.375 0.18634 0.1961-0.18634-0.1961zm31.094 24.25 0.25728 0.12549-0.25728-0.12549zm0.25 0.25 0.14646 0.08928-0.14646-0.08928zm-32.656 35.812 0.01339-0.09865-0.01339 0.09865zm-4.7812 4.125 0.13288 0.26156-0.13288-0.26156zm-13.812 11.031 0.44217-0.05896-0.44217 0.05896zm-17.781 14.594-0.14015 0.00693 0.14015-0.00693zm-8.625 6-0.2314-0.08257 0.2314 0.08257zm-313.72 79.406-0.12945-0.00272 0.12945 0.00272zm-13.969 16.062 0.05725-0.04795-0.05725 0.04795zm-12.156 16.812c1.569 1.6506-1.5459 0.24276 0 0zm-11.094 11.875-0.27898-0.06393 0.27898 0.06393zm0.84375 0.84375c-0.11518 1.7769-1.6461-0.95025 0 0zm-2.2188 2.7188c1.5514 2.0981-1.7618 1.6095 0 0zm-2.0938 2.2188 0.07491-0.07399-0.07491 0.07399zm-4.7188 3.125 0.2657 0.39375-0.2657-0.39375zm-2.9062 5.6875 0.2701 0.10977-0.2701-0.10977zm-4.9375 6.25 0.02067 0.14875-0.02067-0.14875zm-1.5312 3.9062-0.58281 0.37776 0.58281-0.37776zm-2.8438 5.25 0.04327 0.14183-0.04327-0.14183zm-3.4688 1.75 0.03247 0.05867-0.03247-0.05867zm-2.2188 3.9688 0.096 0.08326-0.096-0.08326zm-1.875 1.625 0.22729 0.25762-0.22729-0.25762zm195.78 1.6875 0.05802-0.02487-0.05802 0.02487zm-14.969 15.344-0.17968 0.16478 0.17968-0.16478zm-2.7812 3.3125 0.08329-0.00168-0.08329 0.00168zm-3.625 3.5 0.21167-0.18827-0.21167 0.18827zm-15.656 17.094 0.06743 0.02013-0.06743-0.02013zm-4.8438 5.25v-0.49717 0.49717zm-1.5938-0.125-0.13514 0.09472 0.13514-0.09472zm-10.625 9.4062 0.25837 0.02486-0.25837-0.02486zm-5.875 4.4062 0.21696 0.15365-0.21696-0.15365zm-0.0625 1.4375 0.01236 0.174-0.01236-0.174zm0.09375 0.96875 0.20121-0.11043-0.20121 0.11043zm-1.9688 2.0938 0.05419 0.1708-0.05419-0.1708zm-2.3438 0.78125-0.02084 0.16099 0.02084-0.16099zm0.46875 0.28125-0.14612 0.30522 0.14612-0.30522zm0.71875 0.1875-0.04439-0.11483 0.04439 0.11483zm-0.3125 0.375 0.12781 0.23888-0.12781-0.23888zm-9.4062 6.5312-0.02402 0.23016 0.02402-0.23016zm-3.0312 0.6875-0.07051 0.04629 0.07051-0.04629zm1 0.90625 0.26903 0.04616-0.26903-0.04616zm0.625 0.09375 0.05789-0.04796-0.05789 0.04796zm-4.6562 0.6875 0.2501-0.19676-0.2501 0.19676zm3.1562 0.09375 0.06698 0.24958-0.06698-0.24958zm-3.5938 0.96875-0.15625-0.03125 0.15625 0.03125zm0.28125 0.28125 0.05906 0.18029-0.05906-0.18029zm-2.0625 1.1875 0.08523-0.08636-0.08523 0.08636zm-4.25 0.125 0.07562 0.09995-0.07562-0.09995zm0.5 0.53125 0.08292 0.12641-0.08292-0.12641zm-0.8125 3.5 0.11439-0.13668-0.11439 0.13668zm0.59375 0.15625 0.01218 0.07476-0.01218-0.07476zm-1.4375 0.75-0.24734 0.34095 0.24734-0.34095zm0.8125 0.84375-0.11163-0.38359 0.11163 0.38359zm-6.7188 1.8125-0.24738-0.34015 0.24738 0.34015zm-5.25 3.8438 0.07028-0.16951-0.07028 0.16951zm-1.1562 0.15625-0.04624 0.23809 0.04624-0.23809zm0 0.59375-0.01574 0.09074 0.01574-0.09074zm-4.2812 0.875 0.22591-0.06794-0.22591 0.06794zm-0.28125 0.46875 0.05578-0.07989-0.05578 0.07989zm-3.9375 0.90625 0.22802 0.03109-0.22802-0.03109zm-0.5625 0.625 0.12967 0.09012-0.12967-0.09012zm-0.03125 0.5625 0.24849-0.31061-0.24849 0.31061zm-6.6562 3.4375-0.00327 0.0487 0.00327-0.0487zm-16.094 2.0312 0.00816 0.1014-0.00816-0.1014zm-4.125 1.0625 0.06415 0.07249-0.06415-0.07249z" fill="url(#f)" stroke="url(#l)" stroke-dashoffset="68" stroke-linejoin="round" stroke-width="2"/>
  <path d="m592.05 177.78s-150.97 89.927-299.39 256.28-193.25 264.69-193.25 264.69l-37.208 43.558-1.8726-1.5566s86.057-170.27 191.82-283.06c228.47-243.62 343.58-279.62 339.9-279.91z" fill="url(#e)" opacity=".72177"/>
  <path d="m592.05 177.78s-150.97 89.927-299.39 256.28-193.25 264.69-193.25 264.69l-37.208 43.558-1.8726-1.5566s86.057-170.27 191.82-283.06c228.47-243.62 343.58-279.62 339.9-279.91z" fill="url(#d)"/>
  <path d="m592.05 177.78s-150.97 89.927-299.39 256.28-193.25 264.69-193.25 264.69l-37.208 43.558-1.8726-1.5566s86.057-170.27 191.82-283.06c228.47-243.62 343.58-279.62 339.9-279.91z" fill="url(#c)"/>
  <path d="m191.27 570.68s49.219-20.579 85.136-43.444 38.411-19.578 48.388-31.011 25.275-23.008 25.275-23.008l-26.272-12.862 32.425 8.1457s19.954-16.863 29.93-32.869 19.954-25.152 29.93-34.298 12.471-12.29 12.471-12.29l-33.256-17.292 35.085 13.148s14.633-9.4319 26.605-25.438 38.91-48.589 44.896-56.591 33.921-29.725 51.879-41.157 37.912-24.008 49.884-30.868 32.923-21.007 32.923-21.007l-8.4803-16.434-11.473-11.433s1.8291-12.862 6.1524-14.577 38.244-15.434 42.235-20.007 9.9768-23.723 9.9768-23.723l-9.1454-11.861-40.24 34.012 13.968-28.439-14.3 3.2869s-13.635 26.152-15.63 32.154-18.79 27.581-18.79 27.581-49.385 28.439-55.704 35.87-80.147 70.882-92.119 78.028-48.886 39.3-52.877 45.016-64.517 63.737-64.517 63.737l-49.718 57.878-58.032 69.739-39.907 44.873 13.302-4.8588z" fill="url(#k)" opacity=".72177"/>
  <path d="m167.49 562.78s120.05-137.19 155.97-176.06 135.85-121.76 135.85-121.76 86.965-65.88 92.951-67.024 32.425-18.006 32.425-18.006l11.307-7.5741s0.33256-23.294-0.99768-32.154-20.951 4.8589-20.951 4.8589l-7.6489 12.147-5.1547-7.2883s-63.02 28.439-81.976 43.301-21.118 25.723-21.118 25.723l-3.3256 27.867s-1.6628-11.433-3.6582-20.007 2.6605-14.148 2.6605-14.148-39.741 28.867-49.718 36.87-28.933 24.294-28.933 24.294l0.49884 16.577 5.4872 15.434s-10.974-12.004-10.974-21.436-69.671 61.879-69.671 61.879l9.6442 20.293-15.298-15.863s-50.383 67.452-55.371 70.596-13.968 11.004-13.968 11.004l18.623 9.8606-23.113-2.2865s-66.845 82.744-53.542 122.9z" fill="url(#j)" opacity=".72177"/>
 </g>
</svg>
