<?xml version="1.0" encoding="UTF-8"?>
<svg viewBox="0 0 995.36334 154.22218" xmlns="http://www.w3.org/2000/svg">
 <defs>
  <linearGradient id="a" x1="368.62" x2="490.69" y1="578.67" y2="463.41" gradientUnits="userSpaceOnUse">
   <stop stop-color="#5773b2" offset="0"/>
   <stop stop-color="#5773b2" stop-opacity=".49804" offset=".72674"/>
   <stop stop-color="#5773b2" stop-opacity="0" offset="1"/>
  </linearGradient>
 </defs>
 <g transform="translate(-194.32 -444.89)" fill-rule="evenodd">
  <path d="m213.99 571.78c-4.0473-5.4228 1.0025-26.005 14.946-42.978 13.636-16.599 42.855-45.1 61.567-57.254s56.453-28.869 58.669-26.41c3.4221 3.7967-8.7424 26.805-24.771 46.707s-40.233 38.255-59.45 54.275-46.659 31.423-50.96 25.66z" fill="#c8b7c4"/>
  <path d="m348.35 444.9c-6.0408-0.14496-40.301 15.262-57.844 26.656-18.712 12.154-47.927 40.651-61.562 57.25-13.944 16.973-19.016 37.546-14.969 42.969 4.3012 5.7631 31.751-9.6358 50.969-25.656s43.44-34.379 59.469-54.281c0.64154-0.79656 1.2466-1.6012 1.875-2.4062l-16.531-1.0312 19.969-3.5c0.53754-0.72881 1.0702-1.4583 1.5938-2.1875l-15.75 0.65625 18.031-3.875c0.5252-0.76098 1.0243-1.5255 1.5312-2.2812l-15.781 1.5938 17.25-3.7812c0.55601-0.85292 1.1273-1.6914 1.6562-2.5312l-13.844 1.5312 15.281-3.875c0.50072-0.82249 0.9673-1.6348 1.4375-2.4375l-12.188 1.75 14.906-6.625c4.7523-8.8958 7.0479-15.762 5.3125-17.688-0.1385-0.15367-0.40978-0.24034-0.8125-0.25z" fill="#9d8097"/>
  <g transform="translate(107.73 361.6)" fill="#6c5367">
   <path d="m119.2 169.95 2.0312 17.188 1.5625-21.656c-0.43841 0.52094-1.1204 1.2186-1.5312 1.7188-0.74079 0.90175-1.372 1.8307-2.0625 2.75z"/>
   <path d="m114.3 177.26 1.8438 12.562 0.96875-17.031c-1.0185 1.4849-1.9221 2.9724-2.8125 4.4688z"/>
   <path d="m110.02 185.42 1.8438 8.6875-0.21875-12.031c-0.57126 1.1262-1.1278 2.2368-1.625 3.3438z"/>
   <path d="m118.52 209.07c-0.66444 0.0247-1.3466 0.11386-2 0.0312-1.0924-0.13811-2.1577-0.41748-3.1562-0.9375s-1.9241-1.2768-2.75-2.2812c-0.35864-0.43618-0.67008-1.3259-0.96875-2.5312s-0.56947-2.7296-0.8125-4.4688c-0.34389-2.461-0.56957-5.5079-0.8125-8.4688-3.2832 9.0854-3.9548 16.754-1.7188 19.75 1.5446 2.0696 6.1585 1.344 12.219-1.0938z"/>
  </g>
  <path d="m194.32 592.67s6.9214-7.103 10.102-5.7831c0.25059 0.34339 21.532-26.839 42.957-44.905s84.6-80.687 84.421-80.982-65.677 60.105-87.101 78.171-50.379 53.499-50.379 53.499z" fill="#241c22"/>
  <path d="m199.18 588.23s2.8139-2.5524 5.4852-3.2397c0.13227 0.094 20.649-25.324 42.073-43.39s76.693-72.588 81.303-77.21c-5.4492 4.7698-61.548 57.217-82.972 75.283s-45.888 48.556-45.888 48.556z" fill="#814a75" fill-opacity=".88235"/>
  <path d="m368.49 578.22c-4.0473-5.4228 1.0025-26.005 14.946-42.978 13.636-16.599 42.855-45.1 61.567-57.254s56.453-28.869 58.669-26.41c3.4221 3.7967-8.7424 26.805-24.771 46.707s-40.233 38.255-59.45 54.275-46.659 31.423-50.96 25.66z" fill="#b6c3de"/>
  <path d="m502.86 451.34c-6.0408-0.14496-40.301 15.262-57.844 26.656-18.712 12.154-47.927 40.651-61.562 57.25-13.944 16.973-19.016 37.546-14.969 42.969 4.3012 5.7631 31.751-9.6358 50.969-25.656s43.44-34.379 59.469-54.281c0.64154-0.79656 1.2466-1.6012 1.875-2.4062l-16.531-1.0312 19.969-3.5c0.53754-0.72881 1.0702-1.4583 1.5938-2.1875l-15.75 0.65625 18.031-3.875c0.5252-0.76098 1.0243-1.5255 1.5312-2.2812l-15.781 1.5938 17.25-3.7812c0.55601-0.85292 1.1273-1.6914 1.6562-2.5312l-13.844 1.5312 15.281-3.875c0.50072-0.82249 0.9673-1.6348 1.4375-2.4375l-12.188 1.75 14.906-6.625c4.7523-8.8958 7.0479-15.762 5.3125-17.688-0.1385-0.15367-0.40978-0.24034-0.8125-0.25z" fill="#859bc8"/>
  <g transform="translate(262.24 368.05)" fill="#4c68a6">
   <path d="m119.2 169.95 2.0312 17.188 1.5625-21.656c-0.43841 0.52094-1.1204 1.2186-1.5312 1.7188-0.74079 0.90175-1.372 1.8307-2.0625 2.75z"/>
   <path d="m114.3 177.26 1.8438 12.562 0.96875-17.031c-1.0185 1.4849-1.9221 2.9724-2.8125 4.4688z"/>
   <path d="m110.02 185.42 1.8438 8.6875-0.21875-12.031c-0.57126 1.1262-1.1278 2.2368-1.625 3.3438z"/>
   <path d="m118.52 209.07c-0.66444 0.0247-1.3466 0.11386-2 0.0312-1.0924-0.13811-2.1577-0.41748-3.1562-0.9375s-1.9241-1.2768-2.75-2.2812c-0.35864-0.43618-0.67008-1.3259-0.96875-2.5312s-0.56947-2.7296-0.8125-4.4688c-0.34389-2.461-0.56957-5.5079-0.8125-8.4688-3.2832 9.0854-3.9548 16.754-1.7188 19.75 1.5446 2.0696 6.1585 1.344 12.219-1.0938z"/>
  </g>
  <path d="m348.82 599.12s6.9214-7.103 10.102-5.7831c0.25059 0.34339 21.532-26.839 42.957-44.905s84.6-80.687 84.421-80.982-65.677 60.105-87.101 78.171-50.379 53.499-50.379 53.499z" fill="#293858"/>
  <path d="m353.69 594.68s2.8139-2.5524 5.4852-3.2397c0.13227 0.094 20.649-25.324 42.073-43.39s82.553-76.201 81.303-77.21c-1.25-1.1873-61.548 57.217-82.972 75.283s-45.888 48.556-45.888 48.556z" fill="url(#a)"/>
  <path d="m535.17 578.22c-4.0473-5.4228 1.0025-26.005 14.946-42.978 13.636-16.599 42.855-45.1 61.567-57.254s56.453-28.869 58.669-26.41c3.4221 3.7967-8.7424 26.805-24.771 46.707s-40.233 38.255-59.45 54.275-46.659 31.423-50.96 25.66z" fill="#c6e9af"/>
  <path d="m669.53 451.34c-6.0408-0.14496-40.301 15.262-57.844 26.656-18.712 12.154-47.927 40.651-61.562 57.25-13.944 16.973-19.016 37.546-14.969 42.969 4.3012 5.7631 31.751-9.6358 50.969-25.656s43.44-34.379 59.469-54.281c0.64154-0.79656 1.2466-1.6012 1.875-2.4062l-16.531-1.0312 19.969-3.5c0.53754-0.72881 1.0702-1.4583 1.5938-2.1875l-15.75 0.65625 18.031-3.875c0.5252-0.76098 1.0243-1.5255 1.5312-2.2812l-15.781 1.5938 17.25-3.7812c0.55601-0.85292 1.1273-1.6914 1.6562-2.5312l-13.844 1.5312 15.281-3.875c0.50072-0.82249 0.9673-1.6348 1.4375-2.4375l-12.188 1.75 14.906-6.625c4.7523-8.8958 7.0479-15.762 5.3125-17.688-0.1385-0.15367-0.40978-0.24034-0.8125-0.25z" fill="#8dd35f"/>
  <g transform="translate(428.91 368.05)" fill="#5aa02c">
   <path d="m119.2 169.95 2.0312 17.188 1.5625-21.656c-0.43841 0.52094-1.1204 1.2186-1.5312 1.7188-0.74079 0.90175-1.372 1.8307-2.0625 2.75z"/>
   <path d="m114.3 177.26 1.8438 12.562 0.96875-17.031c-1.0185 1.4849-1.9221 2.9724-2.8125 4.4688z"/>
   <path d="m110.02 185.42 1.8438 8.6875-0.21875-12.031c-0.57126 1.1262-1.1278 2.2368-1.625 3.3438z"/>
   <path d="m118.52 209.07c-0.66444 0.0247-1.3466 0.11386-2 0.0312-1.0924-0.13811-2.1577-0.41748-3.1562-0.9375s-1.9241-1.2768-2.75-2.2812c-0.35864-0.43618-0.67008-1.3259-0.96875-2.5312s-0.56947-2.7296-0.8125-4.4688c-0.34389-2.461-0.56957-5.5079-0.8125-8.4688-3.2832 9.0854-3.9548 16.754-1.7188 19.75 1.5446 2.0696 6.1585 1.344 12.219-1.0938z"/>
  </g>
  <path d="m515.5 599.12s6.9214-7.103 10.102-5.7831c0.25059 0.34339 21.532-26.839 42.957-44.905s84.6-80.687 84.421-80.982-65.677 60.105-87.101 78.171-50.379 53.499-50.379 53.499z" fill="#17280b"/>
  <path d="m520.37 594.68s2.8139-2.5524 5.4852-3.2397c0.13227 0.094 20.649-25.324 42.073-43.39s82.553-76.201 81.303-77.21c-1.25-1.1873-61.548 57.217-82.972 75.283s-45.888 48.556-45.888 48.556z" fill="#447821"/>
  <path d="m712.96 578.22c-4.0473-5.4228 1.0025-26.005 14.946-42.978 13.636-16.599 42.855-45.1 61.567-57.254s56.453-28.869 58.669-26.41c3.4221 3.7967-8.7424 26.805-24.771 46.707s-40.233 38.255-59.45 54.275-46.659 31.423-50.96 25.66z" fill="#efa"/>
  <path d="m847.32 451.34c-6.0408-0.14496-40.301 15.262-57.844 26.656-18.712 12.154-47.927 40.651-61.562 57.25-13.944 16.973-19.016 37.546-14.969 42.969 4.3012 5.7631 31.751-9.6358 50.969-25.656s43.44-34.379 59.469-54.281c0.64154-0.79656 1.2466-1.6012 1.875-2.4062l-16.531-1.0312 19.969-3.5c0.53754-0.72881 1.0702-1.4583 1.5938-2.1875l-15.75 0.65625 18.031-3.875c0.5252-0.76098 1.0243-1.5255 1.5312-2.2812l-15.781 1.5938 17.25-3.7812c0.55601-0.85292 1.1273-1.6914 1.6562-2.5312l-13.844 1.5312 15.281-3.875c0.50072-0.82249 0.9673-1.6348 1.4375-2.4375l-12.188 1.75 14.906-6.625c4.7523-8.8958 7.0479-15.762 5.3125-17.688-0.1385-0.15367-0.40978-0.24034-0.8125-0.25z" fill="#df5"/>
  <g transform="translate(606.7 368.05)" fill="#aad400">
   <path d="m119.2 169.95 2.0312 17.188 1.5625-21.656c-0.43841 0.52094-1.1204 1.2186-1.5312 1.7188-0.74079 0.90175-1.372 1.8307-2.0625 2.75z"/>
   <path d="m114.3 177.26 1.8438 12.562 0.96875-17.031c-1.0185 1.4849-1.9221 2.9724-2.8125 4.4688z"/>
   <path d="m110.02 185.42 1.8438 8.6875-0.21875-12.031c-0.57126 1.1262-1.1278 2.2368-1.625 3.3438z"/>
   <path d="m118.52 209.07c-0.66444 0.0247-1.3466 0.11386-2 0.0312-1.0924-0.13811-2.1577-0.41748-3.1562-0.9375s-1.9241-1.2768-2.75-2.2812c-0.35864-0.43618-0.67008-1.3259-0.96875-2.5312s-0.56947-2.7296-0.8125-4.4688c-0.34389-2.461-0.56957-5.5079-0.8125-8.4688-3.2832 9.0854-3.9548 16.754-1.7188 19.75 1.5446 2.0696 6.1585 1.344 12.219-1.0938z"/>
  </g>
  <path d="m693.29 599.12s6.9214-7.103 10.102-5.7831c0.25059 0.34339 21.532-26.839 42.957-44.905s84.6-80.687 84.421-80.982-65.677 60.105-87.101 78.171-50.379 53.499-50.379 53.499z" fill="#450"/>
  <path d="m698.16 594.68s2.8139-2.5524 5.4852-3.2397c0.13227 0.094 20.649-25.324 42.073-43.39s82.553-76.201 81.303-77.21c-1.25-1.1873-61.548 57.217-82.972 75.283s-45.888 48.556-45.888 48.556z" fill="#8a0"/>
  <path d="m887.24 578.22c-4.0473-5.4228 1.0025-26.005 14.946-42.978 13.636-16.599 42.855-45.1 61.567-57.254s56.453-28.869 58.669-26.41c3.4221 3.7967-8.7424 26.805-24.771 46.707s-40.233 38.255-59.45 54.275-46.659 31.423-50.96 25.66z" fill="#fca"/>
  <path d="m1021.6 451.34c-6.0408-0.14496-40.301 15.262-57.844 26.656-18.712 12.154-47.927 40.651-61.562 57.25-13.944 16.973-19.016 37.546-14.969 42.969 4.3012 5.7631 31.751-9.6358 50.969-25.656s43.44-34.379 59.469-54.281c0.64154-0.79656 1.2466-1.6012 1.875-2.4062l-16.531-1.0312 19.969-3.5c0.5375-0.72881 1.0701-1.4583 1.5937-2.1875l-15.75 0.65625 18.031-3.875c0.5252-0.76098 1.0243-1.5255 1.5312-2.2812l-15.781 1.5938 17.25-3.7812c0.556-0.85292 1.1273-1.6914 1.6562-2.5312l-13.844 1.5312 15.281-3.875c0.5008-0.82249 0.9673-1.6348 1.4375-2.4375l-12.188 1.75 14.906-6.625c4.7523-8.8958 7.0479-15.762 5.3125-17.688-0.1385-0.15367-0.4098-0.24034-0.8125-0.25z" fill="#f95"/>
  <g transform="translate(780.98 368.05)" fill="#d45500">
   <path d="m119.2 169.95 2.0312 17.188 1.5625-21.656c-0.43841 0.52094-1.1204 1.2186-1.5312 1.7188-0.74079 0.90175-1.372 1.8307-2.0625 2.75z"/>
   <path d="m114.3 177.26 1.8438 12.562 0.96875-17.031c-1.0185 1.4849-1.9221 2.9724-2.8125 4.4688z"/>
   <path d="m110.02 185.42 1.8438 8.6875-0.21875-12.031c-0.57126 1.1262-1.1278 2.2368-1.625 3.3438z"/>
   <path d="m118.52 209.07c-0.66444 0.0247-1.3466 0.11386-2 0.0312-1.0924-0.13811-2.1577-0.41748-3.1562-0.9375s-1.9241-1.2768-2.75-2.2812c-0.35864-0.43618-0.67008-1.3259-0.96875-2.5312s-0.56947-2.7296-0.8125-4.4688c-0.34389-2.461-0.56957-5.5079-0.8125-8.4688-3.2832 9.0854-3.9548 16.754-1.7188 19.75 1.5446 2.0696 6.1585 1.344 12.219-1.0938z"/>
  </g>
  <path d="m867.57 599.12s6.9214-7.103 10.102-5.7831c0.25059 0.34339 21.532-26.839 42.957-44.905s84.6-80.687 84.421-80.982-65.677 60.105-87.101 78.171-50.379 53.499-50.379 53.499z" fill="#520"/>
  <path d="m872.44 594.68s2.8139-2.5524 5.4852-3.2397c0.13227 0.094 20.649-25.324 42.073-43.39s82.553-76.201 81.303-77.21c-1.25-1.1873-61.548 57.217-82.972 75.283s-45.888 48.556-45.888 48.556z" fill="#a40"/>
  <path d="m1053.9 578.22c-4.0473-5.4228 1.0025-26.005 14.946-42.978 13.636-16.599 42.855-45.1 61.567-57.254s56.453-28.869 58.669-26.41c3.4221 3.7967-8.7424 26.805-24.771 46.707s-40.233 38.255-59.45 54.275-46.659 31.423-50.96 25.66z" fill="#ffd5d5"/>
  <path d="m1188.3 451.34c-6.0408-0.14496-40.301 15.262-57.844 26.656-18.712 12.154-47.927 40.651-61.562 57.25-13.944 16.973-19.016 37.546-14.969 42.969 4.3013 5.7631 31.751-9.6358 50.969-25.656s43.44-34.379 59.469-54.281c0.6416-0.79656 1.2466-1.6012 1.875-2.4062l-16.531-1.0312 19.969-3.5c0.5375-0.72881 1.0701-1.4583 1.5937-2.1875l-15.75 0.65625 18.031-3.875c0.5252-0.76098 1.0243-1.5255 1.5312-2.2812l-15.781 1.5938 17.25-3.7812c0.556-0.85292 1.1273-1.6914 1.6562-2.5312l-13.844 1.5312 15.281-3.875c0.5008-0.82249 0.9673-1.6348 1.4375-2.4375l-12.188 1.75 14.906-6.625c4.7523-8.8958 7.0479-15.762 5.3125-17.688-0.1385-0.15367-0.4098-0.24034-0.8125-0.25z" fill="#ff8080"/>
  <g transform="translate(947.66 368.05)" fill="#d40000">
   <path d="m119.2 169.95 2.0312 17.188 1.5625-21.656c-0.43841 0.52094-1.1204 1.2186-1.5312 1.7188-0.74079 0.90175-1.372 1.8307-2.0625 2.75z"/>
   <path d="m114.3 177.26 1.8438 12.562 0.96875-17.031c-1.0185 1.4849-1.9221 2.9724-2.8125 4.4688z"/>
   <path d="m110.02 185.42 1.8438 8.6875-0.21875-12.031c-0.57126 1.1262-1.1278 2.2368-1.625 3.3438z"/>
   <path d="m118.52 209.07c-0.66444 0.0247-1.3466 0.11386-2 0.0312-1.0924-0.13811-2.1577-0.41748-3.1562-0.9375s-1.9241-1.2768-2.75-2.2812c-0.35864-0.43618-0.67008-1.3259-0.96875-2.5312s-0.56947-2.7296-0.8125-4.4688c-0.34389-2.461-0.56957-5.5079-0.8125-8.4688-3.2832 9.0854-3.9548 16.754-1.7188 19.75 1.5446 2.0696 6.1585 1.344 12.219-1.0938z"/>
  </g>
  <path d="m1034.2 599.12s6.9214-7.103 10.102-5.7831c0.2506 0.34339 21.532-26.839 42.957-44.905s84.6-80.687 84.421-80.982-65.677 60.105-87.101 78.171-50.378 53.499-50.378 53.499z" fill="#500"/>
  <path d="m1039.1 594.68s2.8138-2.5524 5.4852-3.2397c0.1322 0.094 20.648-25.324 42.073-43.39s82.553-76.201 81.303-77.21c-1.25-1.1873-61.548 57.217-82.972 75.283s-45.888 48.556-45.888 48.556z" fill="#a00"/>
 </g>
</svg>
